<?xml version="1.0" standalone="no"?>
<!DOCTYPE svg PUBLIC "-//W3C//DTD SVG 20010904//EN"
 "http://www.w3.org/TR/2001/REC-SVG-20010904/DTD/svg10.dtd">
<svg version="1.0" xmlns="http://www.w3.org/2000/svg"
 width="260.000000pt" height="260.000000pt" viewBox="0 0 260.000000 260.000000"
 preserveAspectRatio="xMidYMid meet">
<metadata>
Created by potrace 1.11, written by Peter Selinger 2001-2013
</metadata>
<g transform="translate(0.000000,260.000000) scale(0.100000,-0.100000)"
fill="#000000" stroke="none">
<path d="M0 1300 l0 -1300 1300 0 1300 0 0 1300 0 1300 -1300 0 -1300 0 0
-1300z m729 603 c23 -59 391 -1054 391 -1059 0 -3 -37 -4 -82 -2 l-83 3 -35
113 -35 112 -199 -2 -199 -3 -40 -112 -40 -113 -82 0 -83 0 205 513 c113 281
211 527 218 545 18 41 48 43 64 5z m1322 -7 c103 -38 163 -124 163 -231 0 -82
-51 -152 -147 -202 -14 -7 -8 -12 35 -28 112 -40 178 -142 178 -275 0 -115
-41 -194 -133 -255 -82 -54 -144 -65 -359 -65 l-188 0 0 534 0 535 43 4 c23 3
114 3 202 2 122 -1 171 -6 206 -19z"/>
<path d="M682 1620 c-28 -76 -152 -429 -152 -434 0 -3 70 -6 155 -6 85 0 155
1 155 3 0 1 -33 106 -74 232 -64 196 -76 226 -84 205z"/>
<path d="M1752 1643 l3 -148 73 -3 c143 -6 223 39 237 133 8 53 -15 107 -58
139 -24 18 -46 22 -143 24 l-115 4 3 -149z"/>
<path d="M1750 1178 l0 -205 31 -7 c82 -16 219 4 274 40 39 26 66 94 66 167 0
149 -59 196 -258 205 l-113 5 0 -205z"/>
</g>
</svg>
